<?xml version="1.0" encoding="UTF-8"?>
<svg id="Capa_2" data-name="Capa 2" xmlns="http://www.w3.org/2000/svg" viewBox="0 0 656.2 562.27">
  <defs>
    <style>
      .cls-1 {
        stroke: #f1f1f1;
        stroke-miterlimit: 10;
        stroke-width: 15px;
      }

      .cls-1, .cls-2 {
        fill: #f1f1f1;
      }
    </style>
  </defs>
  <g id="Capa_13" data-name="Capa 13">
    <g>
      <g>
        <path class="cls-1" d="M87.84,458.99H10.65L172.17,7.5h77.29S87.84,458.99,87.84,458.99Z"/>
        <polygon class="cls-1" points="484.04 7.5 398.42 7.5 314.14 243.08 336.75 305.91 291.66 305.91 236.89 458.99 314.09 458.99 484.04 7.5"/>
        <polygon class="cls-1" points="533.01 142.47 645.57 458.99 567.72 458.99 513.73 305.39 471.43 305.39 533.01 142.47"/>
      </g>
      <g>
        <path class="cls-2" d="M44.42,513.52H18.95l-4.38-12.34H4.16l21.79,60.48h11.55l21.79-60.48h-10.5l-4.38,12.34Zm-2.8,8.08l-9.89,28.07-9.98-28.07h19.87Z"/>
        <path class="cls-2" d="M105.63,504.96c4.87,2.46,8.63,6,11.29,10.6,2.65,4.6,3.98,9.98,3.98,16.12s-1.33,11.47-3.98,15.99c-2.66,4.52-6.42,7.98-11.29,10.38-4.87,2.4-10.55,3.61-17.02,3.61h-19.87v-60.39h19.87c6.48,0,12.15,1.23,17.02,3.69Zm-.66,42.88c3.79-3.82,5.69-9.21,5.69-16.16s-1.9-12.48-5.69-16.42c-3.79-3.94-9.25-5.91-16.37-5.91h-9.89v44.23h9.89c7.12,0,12.57-1.91,16.37-5.73Z"/>
        <path class="cls-2" d="M162.39,561.66l-14-24.16h-7.61v24.16h-9.98v-60.39h21c4.67,0,8.62,.81,11.86,2.43,3.24,1.62,5.66,3.79,7.26,6.52,1.6,2.72,2.41,5.76,2.41,9.12,0,3.94-1.15,7.52-3.46,10.73-2.31,3.22-5.85,5.4-10.63,6.56l15.05,25.03h-11.9Zm-21.62-32.06h11.03c3.73,0,6.55-.93,8.45-2.78,1.9-1.85,2.84-4.34,2.84-7.47s-.93-5.58-2.8-7.34c-1.87-1.77-4.7-2.65-8.49-2.65h-11.03v20.25Z"/>
        <path class="cls-2" d="M196.08,501.27v60.39h-9.98v-60.39h9.98Z"/>
        <path class="cls-2" d="M271.73,513.52h-26.47l-4.55-12.34h-10.82l22.65,60.48h12.01l22.65-60.48h-10.92l-4.55,12.34Zm-2.91,8.08l-10.28,28.07-10.37-28.07h20.65Z"/>
        <path class="cls-2" d="M329.86,561.66l-14.55-24.16h-7.91v24.16h-10.37v-60.39h21.83c4.85,0,8.96,.81,12.33,2.43,3.37,1.62,5.88,3.79,7.55,6.52,1.67,2.72,2.5,5.76,2.5,9.12,0,3.94-1.2,7.52-3.59,10.73-2.4,3.22-6.08,5.4-11.05,6.56l15.65,25.03h-12.37Zm-22.47-32.06h11.46c3.88,0,6.81-.93,8.78-2.78,1.97-1.85,2.96-4.34,2.96-7.47s-.97-5.58-2.91-7.34c-1.94-1.77-4.88-2.65-8.82-2.65h-11.46v20.25Z"/>
        <path class="cls-2" d="M355.37,515.44c2.88-4.69,6.79-8.36,11.73-10.99,4.94-2.64,10.35-3.95,16.24-3.95,6.73,0,12.72,1.58,17.97,4.74,5.24,3.16,9.05,7.63,11.42,13.42h-12.46c-1.64-3.19-3.91-5.56-6.82-7.12-2.91-1.56-6.28-2.35-10.1-2.35-4.18,0-7.91,.9-11.19,2.69-3.28,1.8-5.84,4.37-7.69,7.73-1.85,3.36-2.77,7.27-2.77,11.73s.92,8.37,2.77,11.73c1.85,3.36,4.41,5.95,7.69,7.78,3.27,1.82,7,2.74,11.19,2.74,3.82,0,7.19-.78,10.1-2.35,2.91-1.56,5.18-3.94,6.82-7.12h12.46c-2.37,5.79-6.17,10.25-11.42,13.38-5.25,3.13-11.23,4.69-17.97,4.69-5.94,0-11.37-1.32-16.28-3.95-4.91-2.64-8.81-6.3-11.69-10.99-2.88-4.69-4.32-9.99-4.32-15.9s1.44-11.21,4.32-15.9Z"/>
        <path class="cls-2" d="M437.42,558.32c-4.94-2.64-8.86-6.31-11.73-11.04-2.88-4.72-4.32-10.04-4.32-15.95s1.44-11.21,4.32-15.9c2.88-4.69,6.79-8.36,11.73-10.99,4.94-2.64,10.35-3.95,16.24-3.95s11.39,1.32,16.33,3.95c4.94,2.64,8.84,6.3,11.69,10.99,2.85,4.69,4.28,9.99,4.28,15.9s-1.43,11.22-4.28,15.95c-2.85,4.72-6.75,8.4-11.69,11.04-4.94,2.64-10.39,3.95-16.33,3.95s-11.29-1.32-16.24-3.95Zm27.43-7.39c3.28-1.82,5.84-4.43,7.69-7.82,1.85-3.39,2.77-7.31,2.77-11.77s-.92-8.37-2.77-11.73c-1.85-3.36-4.41-5.94-7.69-7.73-3.27-1.79-7-2.69-11.19-2.69s-7.91,.9-11.19,2.69c-3.28,1.8-5.84,4.37-7.69,7.73-1.85,3.36-2.77,7.27-2.77,11.73s.92,8.39,2.77,11.77c1.85,3.39,4.41,6,7.69,7.82,3.27,1.82,7,2.74,11.19,2.74s7.91-.91,11.19-2.74Z"/>
        <path class="cls-2" d="M548.08,561.66h-10.37l-31.2-45.1v45.1h-10.37v-60.48h10.37l31.2,45.01v-45.01h10.37v60.48Z"/>
        <path class="cls-2" d="M572.1,509.27v17.73h21.83v8.08h-21.83v18.51h24.56v8.08h-34.93v-60.48h34.93v8.08h-24.56Z"/>
        <path class="cls-2" d="M618.76,560.14c-3.4-1.42-6.06-3.43-8-6.04-1.94-2.61-2.91-5.65-2.91-9.12h11.1c.24,2.61,1.32,4.75,3.23,6.43,1.91,1.68,4.59,2.52,8.05,2.52s6.37-.83,8.37-2.48,3-3.78,3-6.39c0-2.03-.62-3.68-1.86-4.95-1.24-1.27-2.79-2.26-4.64-2.95-1.85-.7-4.41-1.45-7.69-2.26-4.12-1.04-7.47-2.1-10.05-3.17-2.58-1.07-4.78-2.74-6.6-5-1.82-2.26-2.73-5.27-2.73-9.04,0-3.48,.91-6.52,2.73-9.12,1.82-2.61,4.37-4.61,7.64-6,3.27-1.39,7.06-2.09,11.37-2.09,6.13,0,11.14,1.46,15.05,4.39,3.91,2.93,6.08,6.94,6.5,12.03h-11.46c-.18-2.2-1.27-4.08-3.28-5.65-2-1.56-4.64-2.35-7.91-2.35-2.97,0-5.4,.72-7.28,2.17-1.88,1.45-2.82,3.53-2.82,6.26,0,1.85,.59,3.38,1.77,4.56,1.18,1.19,2.68,2.13,4.5,2.82,1.82,.7,4.31,1.45,7.46,2.26,4.18,1.1,7.6,2.2,10.23,3.3,2.64,1.1,4.88,2.8,6.73,5.08,1.85,2.29,2.77,5.34,2.77,9.17,0,3.07-.86,5.97-2.59,8.69-1.73,2.72-4.25,4.91-7.55,6.56-3.31,1.65-7.2,2.48-11.69,2.48-4.25,0-8.07-.71-11.46-2.13Z"/>
      </g>
    </g>
  </g>
</svg>