<?xml version="1.0" encoding="UTF-8"?>
<svg id="Capa_1" data-name="Capa 1" xmlns="http://www.w3.org/2000/svg" viewBox="0 0 800 681.97">
  <defs>
    <style>
      .cls-1 {
        fill: #46478f;
      }

      .cls-2 {
        fill: #252f9c;
      }

      .cls-3 {
        fill: #e0e3f8;
      }

      .cls-4 {
        fill: #2c3077;
      }

      .cls-5 {
        fill: #3b3f84;
      }

      .cls-6 {
        fill: #d2503e;
      }

      .cls-7 {
        fill: #5b5fa1;
      }
    </style>
  </defs>
  <path class="cls-6" d="M737.01,531.33c-27.64,0-49.33,.19-71.02-.05-24.41-.27-24.41-.44-33.97-24.94-9.06-.8-12.77,7.14-18.65,11.5-49.97,36.99-143.36,22.52-174.67-35.29-23.58-43.55-11.35-101.47,29.66-130.46,30.51-21.56,65.5-27.14,101.15-31.06,7.56-.83,15.63,1.29,22.85-.47,12.18-2.97,30.33,10.6,36.01-10.24,6.04-22.15-7.83-52.49-26.7-57.52-27.1-7.22-58.83-8.71-71.34,25.38-2.83,7.72-6.62,10.44-13.83,10.45-22.94,.05-45.88,.17-68.81,.03-15.05-.09-14.99-8.8-11.15-19.9,13.38-38.76,40.96-64.07,78.48-77.07,39.84-13.81,81.6-13.67,122-2.85,53.16,14.23,83.47,55.45,84.11,110.24,.55,46.96,.6,93.94,.01,140.9-.37,29.46-.37,58.64,15.87,91.33Zm-144.46-156.54c-13.76-1.81-29.85,.93-44.81,7.98-22.74,10.71-32.85,40.34-22.89,64.65,6.37,15.56,33.18,25.73,53.44,20.27,43.25-11.66,53.9-28.31,50.89-75.99-.79-12.54-4.86-17.99-17.39-16.98-5.42,.43-10.89,.07-19.24,.07Z"/>
  <path class="cls-2" d="M117.25,531.38c-17.88-10.69-13.27-24.55-5.17-38.58,19.21-33.28,38.61-66.45,57.93-99.67,8.23,.58,5.12,13.1,13.84,13.17,52.14-.03,104.29-.06,156.43-.09,8.05-.23,6.11-10.83,12.87-12.4,23.7,32.13,39.87,68.72,60.47,102.71,9.44,15.57,5.85,22.21-13.93,39.36-5.65-7.76-13.92-4.63-21.11-4.63-87.11-.1-174.22,.05-261.33,.14Z"/>
  <path class="cls-5" d="M295.2,182.3c8.52,.35,17.05,1.02,25.57,.96,9.42-.07,18.57,2.63,19.83,12.18,1.38,10.39,6.44,24.59-11.44,28.07-14.21-2.4-22.2,1.11-21.34,18.03,1.13,22.37,.4,44.83,.2,67.25-.06,7.05,2.58,15.4-6.88,19.22-4.7-4.14-4.01-9.7-4.01-15.09,0-22.9,.03-45.81-.04-68.71-.02-6.5,.28-14.68-8.19-15.12-20.53-1.07-43.58-7.12-60.83,2.5-11.81,6.58-3.14,28.32-4.46,43.22-.67,7.58-.89,15.35,.03,22.88,2.96,24.3-4.68,44.87-20.6,62.85-7.43-2.13-5.95-8.65-6.88-13.98,22.91-33.43,11.82-71.33,14.11-107.46,.55-8.69-6.36-9.5-12.15-12.52-10.8-5.64-21.76-13.12-17.25-27.55,4.16-13.32,15.68-16.85,28.94-15.81,4.28,.33,8.66-.62,12.99-.99,11.07,.02,22.15,.04,33.22,.05,4.29,.03,8.58,.06,12.87,.09,8.76-.02,17.52-.04,26.29-.06Zm-33.29,32.94s0,.1,0,.14c17.47,0,34.95,.25,52.41-.14,5.76-.13,11.67-4.12,11.8-9.32,.14-5.44-5.69-9.23-11.65-9.26-36.03-.12-72.07-.02-108.1,.1-6.21,.02-11.73,4.11-11.82,9.18-.1,5.26,5.9,9.07,11.69,9.18,18.56,.32,37.12,.12,55.68,.12Z"/>
  <path class="cls-1" d="M301.13,328.02c9.46-3.82,6.82-12.17,6.88-19.22,.2-22.42,.93-44.89-.2-67.25-.85-16.92,7.14-20.43,21.34-18.03-8.76,5.84-16.92,10.87-15.8,24.44,1.59,19.37,.95,38.98,.27,58.45-.53,15.11,6.66,27.08,13.58,39.27,9.01,15.86,20.29,30.48,25.94,48.14-6.76,1.57-4.82,12.17-12.87,12.4-6.9-29.15-29.45-50.45-39.15-78.19Z"/>
  <path class="cls-4" d="M117.25,531.38c87.11-.09,174.22-.23,261.33-.14,7.19,0,15.46-3.13,21.11,4.63-61.55,4.22-123.18,.79-184.76,1.77-25.96,.41-51.93,.29-77.89-.07-6.95-.09-15.56,3.31-19.79-6.2Z"/>
  <path class="cls-7" d="M196.17,346.56c.93,5.33-.55,11.85,6.88,13.98-3.06,16.65-18.34,28.18-19.19,45.76-8.73-.07-5.61-12.58-13.84-13.17,6.45-16.8,15.32-32.24,26.16-46.57Z"/>
  <path class="cls-3" d="M261.91,215.25c-18.56,0-37.13,.2-55.68-.12-5.79-.1-11.79-3.92-11.69-9.18,.1-5.08,5.61-9.16,11.82-9.18,36.03-.12,72.07-.22,108.1-.1,5.97,.02,11.79,3.81,11.65,9.26-.13,5.2-6.04,9.19-11.8,9.32-17.46,.39-34.94,.14-52.41,.14,0-.05,0-.1,0-.14Z"/>
</svg>