<?xml version="1.0" encoding="UTF-8"?>
<svg id="Capa_2" data-name="Capa 2" xmlns="http://www.w3.org/2000/svg" viewBox="0 0 978.72 269.59">
  <defs>
    <style>
      .cls-1 {
        fill: #1c1c1c;
      }

      .cls-2 {
        fill: #fe2f24;
      }
    </style>
  </defs>
  <g id="Capa_1-2" data-name="Capa 1">
    <g>
      <path class="cls-2" d="M.09,134.5c0-43.28,.05-86.56-.09-129.84C-.01,.89,.91,0,4.67,0,91.23,.12,177.78,.12,264.34,0c3.77,0,4.66,.91,4.66,4.67-.12,86.7-.11,173.4-.01,260.1,0,3.64-.78,4.83-4.65,4.82-86.56-.12-173.12-.12-259.67,0-3.89,0-4.65-1.2-4.64-4.83,.12-43.42,.08-86.84,.08-130.26Zm132.31,13.49c.59,1.6,.88,2.23,1.07,2.89,7.68,26.7,30.71,41.42,58.26,37.25,19.7-2.98,36.53-18.27,41.58-37.46,.76-2.89,.02-3.72-2.66-4.11-4.06-.6-8.17-1.2-12.1-2.33-3.67-1.05-5.03,.01-6.25,3.59-6.51,19.07-31.05,26.59-47.43,14.83-2.63-1.89-3.21-2.79,.17-4.72,20.21-11.49,40.29-23.2,60.4-34.85,1.47-.85,3.26-1.11,2.22-3.98-12.35-33.97-54.81-43.91-80.84-18.86-6.3,6.07-10.85,13.23-13.87,21.49-.28-9.59-.36-19.07-.23-28.55,.03-2.4-.63-3.24-3.09-3.14-4.39,.18-8.81,.28-13.19-.02-3.72-.25-5.04,.65-4.98,4.76,.24,16.31,.36,32.63-.12,48.93-.32,10.8-5.68,18.99-15.97,23.06-17.18,6.81-34.66-5.76-34.75-24.84-.08-16.17-.07-32.34,.04-48.51,.02-2.53-.55-3.53-3.27-3.39-4.39,.23-8.81,.3-13.18-.01-3.61-.26-4.83,.62-4.77,4.56,.26,15.74,.09,31.49,.11,47.24,.05,31.85,27.29,53.35,58.22,45.7,20.18-4.99,31.01-18.65,34.63-39.53Z"/>
      <path class="cls-1" d="M397.43,65.89c0,8.08,.1,16.16-.02,24.24-.26,17.52-11.37,30.7-28.3,33.71-16.53,2.94-32.26-5.72-38.03-20.98-1.57-4.14-2.37-8.45-2.38-12.88,0-16.59,.06-33.18-.07-49.76-.02-2.73,.58-3.77,3.46-3.59,3.95,.24,7.94,.23,11.9,0,2.7-.15,3.3,.8,3.28,3.38-.12,16.59-.12,33.18-.04,49.76,.04,8.72,5.65,15.39,13.57,16.48,9.79,1.35,17.95-5.83,18.03-16.21,.13-16.16,.22-32.33-.09-48.48-.08-4.31,1.24-5.33,5.19-4.93,3.37,.34,6.81,.23,10.2,.02,2.6-.16,3.41,.62,3.35,3.31-.18,8.64-.07,17.3-.07,25.94Z"/>
      <path class="cls-1" d="M329.04,188.19c0-13.19,.09-26.38-.07-39.57-.04-2.94,.69-3.85,3.72-3.81,15.32,.15,30.64,.13,45.95,.02,2.69-.02,3.82,.56,3.59,3.5-.28,3.52-.33,7.11,0,10.62,.33,3.44-1.1,3.93-4.1,3.86-9.07-.19-18.16,.04-27.23-.13-2.83-.05-3.77,.76-3.49,3.57,.37,3.78-1.54,8.72,.71,11.07,2.27,2.38,7.24,.64,11.02,.73,5.24,.12,10.5,.16,15.74-.03,2.52-.09,3.57,.44,3.4,3.21-.29,4.65,1.53,10.72-.78,13.61-2.4,3-8.73,.72-13.33,.9-4.53,.18-9.08,.15-13.61,0-2.33-.08-3.3,.47-3.16,3.02,.22,3.96,.24,7.95,0,11.91-.17,2.77,.88,3.28,3.39,3.24,9.36-.14,18.72,.03,28.08-.11,2.59-.04,3.52,.63,3.36,3.32-.23,3.82-.15,7.66-.02,11.48,.07,2.08-.36,3.02-2.76,3.01-15.88-.1-31.77-.12-47.65,.01-2.86,.02-2.77-1.45-2.77-3.44,.04-13.33,.02-26.66,.02-40Z"/>
      <path class="cls-1" d="M961.11,68.7c0-10.07,.09-19.39-.06-28.71-.04-2.54,.53-3.56,3.26-3.37,3.53,.24,7.1,.26,10.63,0,3-.22,3.79,.76,3.76,3.74-.16,14.61-.07,29.22-.07,43.82,0,11.63-.16,23.26,.09,34.89,.08,3.66-1.06,4.7-4.51,4.29-2.38-.28-4.82-.05-7.23-.05q-5.7,0-6.14-6.09c-4.34,4.19-9.26,6.68-15.04,7.09-11.66,.82-20.31-4.22-26.19-14.04-7.69-12.85-5.75-30.2,4.3-40.65,10.14-10.55,25.3-11.15,37.21-.92Zm.23,24.32c.07-8.46-5.92-14.84-14.04-14.98-8.03-.14-14.42,6.21-14.61,14.53-.19,8.19,6.09,14.81,14.16,14.94,8.18,.13,14.43-6.12,14.49-14.48Z"/>
      <path class="cls-1" d="M815.49,68.53c0-9.84,.13-19.03-.08-28.21-.07-3.07,.9-3.91,3.82-3.68,3.24,.25,6.55,.33,9.77-.02,3.58-.38,4.08,1.13,4.07,4.28-.12,26.09-.13,52.19,0,78.28,.02,3.28-.72,4.61-4.15,4.19-2.38-.29-4.81-.06-7.23-.06q-5.97,0-6.55-6.05c-6.6,6.45-14.42,8.41-23.05,6.54-13.78-2.98-23.32-16.61-22.74-31.89,.37-9.68,3.76-17.96,11.17-24.36,9.94-8.59,23.28-8.33,34.96,.97Zm.3,24.25c-.05-8.38-6.22-14.64-14.39-14.61-8.13,.03-14.33,6.4-14.33,14.75,0,8.28,6.3,14.62,14.46,14.58,8.22-.04,14.31-6.33,14.26-14.72Z"/>
      <path class="cls-1" d="M592.91,225.42c0,8-.16,15.18,.07,22.34,.1,3.06-.89,3.97-3.82,3.68-4.46-.44-10.46,1.88-12.98-.94-2.21-2.47-.69-8.35-.7-12.72-.03-21,.06-41.99-.09-62.99-.02-3.14,.67-4.31,3.92-3.95,2.66,.3,5.41,.28,8.07,0,4.05-.41,6.68,.36,5.32,5.93,3.23-2.05,5.51-4.27,8.46-5.44,12.17-4.85,26.18-.05,32.99,11.96,7.02,12.38,6.84,25.05-.95,37.02-9.12,14.03-26.34,16.36-40.31,5.09Zm-.4-24.33c-.04,8.26,6.27,14.83,14.29,14.89,7.84,.06,14.52-6.74,14.52-14.79,0-8.18-6.43-14.77-14.43-14.79-8.13-.02-14.34,6.33-14.38,14.7Z"/>
      <path class="cls-1" d="M888.46,69.21c-1.48-5.69,.2-7.24,4.58-6.63,4.03,.55,9.45-1.72,11.8,.9,2.01,2.24,.68,7.53,.69,11.47,.04,14.89-.07,29.78,.08,44.67,.03,2.98-.77,4.05-3.77,3.75-2.53-.25-5.1-.05-7.65-.05q-6.01,0-6.56-5.86c-10.11,8.66-21.1,9.65-31.96,2.49-11.79-7.77-15.28-19.67-13.29-33.13,1.92-12.94,10.68-22.44,22.4-24.93,8.56-1.82,16.19,.26,23.68,7.34Zm-14.64,38.29c8.2,.03,14.42-6.2,14.49-14.51,.06-8.36-6.07-14.76-14.2-14.82-8.23-.06-14.34,6.08-14.47,14.54-.12,8.35,6.02,14.76,14.18,14.79Z"/>
      <path class="cls-1" d="M758.93,176.79c-1.34-5.18,.58-6.42,4.8-5.95,3.36,.37,6.8,.14,10.2,.05,1.83-.05,2.42,.6,2.41,2.46-.06,18.58-.07,37.16,0,55.74,0,2.24-.99,2.57-2.84,2.51-2.97-.1-5.96-.03-8.93-.03q-5.87,0-6.11-6.15c-4.45,4.42-9.52,6.86-15.48,7.22-14.84,.89-26.95-9.31-29.87-25.15-3.34-18.11,7.23-34.76,23.92-37.66,6.99-1.22,13.41,.73,21.89,6.98Zm-.01,24.66c.11-8.48-5.83-14.9-13.95-15.05-8.16-.15-14.44,6.06-14.61,14.44-.17,8.28,5.93,14.88,14.01,15.13,7.97,.25,14.44-6.21,14.55-14.52Z"/>
      <path class="cls-1" d="M432.12,225.51c-6.55,7.03-14.54,8.56-23.33,6.25-10.04-2.63-16.62-10.89-17.08-22.31-.49-12.03-.2-24.09-.34-36.14-.02-1.85,.56-2.48,2.42-2.43,3.97,.11,7.95,.2,11.9-.03,2.66-.15,3.35,.68,3.3,3.31-.17,9.35-.12,18.71-.04,28.07,.04,5.1,1.45,9.71,6.56,11.89,5.17,2.21,9.97,.96,14.29-2.5,2.01-1.61,2.88-3.53,2.84-6.22-.15-10.35,.04-20.7-.13-31.05-.05-2.81,.73-3.77,3.51-3.48,4.6,.48,10.63-1.97,13.41,1,2.22,2.37,.68,8.34,.69,12.71,.03,14.18-.1,28.36,.09,42.53,.05,3.39-.63,4.97-4.32,4.49-2.23-.29-4.53-.05-6.8-.05q-6.1,0-6.97-6.05Z"/>
      <path class="cls-1" d="M502.87,200.62c.31-17.98,14.01-31.33,31.93-31.12,17.7,.21,31.43,14.3,31.18,32.01-.26,18.33-14.03,31.43-32.7,31.14-17.6-.28-30.71-14.09-30.4-32.03Zm17.16,.73c.09,8.27,6.55,14.77,14.53,14.63,7.97-.14,14.34-6.9,14.16-15.03-.18-8.35-6.5-14.66-14.57-14.55-8.11,.12-14.22,6.58-14.12,14.95Z"/>
      <path class="cls-1" d="M665.77,214.04c9.28,7.38,21.24,4.77,26.35-5.86,.95-1.98,1.8-2.5,3.8-1.94,2.31,.65,4.67,1.27,7.05,1.5,3.93,.39,4.7,1.82,3.15,5.6-5.68,13.92-20.86,22-36.08,18.86-14.85-3.06-25.02-16.3-24.47-31.87,.54-15.39,10.06-27.18,24.4-30.22,14.25-3.02,28.15,3.75,34.46,16.5,1.43,2.9,.98,4.22-1.83,5.79-12.21,6.85-24.29,13.95-36.41,20.97-.11,.06-.15,.23-.43,.67Zm20.36-26.36c-4.38-4.22-11.47-4.95-17.21-1.87-5.77,3.1-9.25,9.79-8.01,15.71,8.43-4.63,16.81-9.22,25.22-13.84Z"/>
      <path class="cls-1" d="M608.69,97.06c-6.24,0-12.49,.09-18.73-.04-2.6-.05-2.75,.75-1.92,2.96,3.62,9.72,17.29,12.89,25.62,5.59,2.04-1.78,3.25-1.89,5.3-.47,2.79,1.94,5.72,3.69,8.7,5.33,1.72,.95,1.84,1.88,.61,3.24-.85,.95-1.6,2-2.52,2.87-10.46,9.88-31.07,10.54-43.05,1.41-12.13-9.24-15.89-26.55-8.75-40.21,5.97-11.42,19.16-18.11,32.11-16.29,12.24,1.72,21.78,10.44,24.47,22.35,.03,.14,.09,.27,.11,.41,.61,4.08,1.8,8.83-.32,12.02-1.62,2.43-6.35,.62-9.7,.77-3.97,.18-7.95,.04-11.92,.04Zm-20.88-11.15c7.64,0,15.21-.14,22.77,.07,3.25,.09,3.13-1.16,2.09-3.39-2.19-4.7-7.4-7.42-13.37-6.94-6.02,.49-9.89,3.85-11.49,10.27Z"/>
      <path class="cls-1" d="M427.13,69.23c8.36-8.56,17.1-9.66,26.48-6.22,9.46,3.47,14.02,11.18,14.54,20.66,.69,12.44,.23,24.95,.35,37.43,.02,2.05-.97,2.27-2.62,2.24-3.83-.08-7.67-.2-11.48,.03-2.64,.16-3.38-.67-3.34-3.3,.15-9.5,.18-19,.01-28.5-.09-5.22-1.66-10.03-7.11-11.98-5.21-1.86-10.05-.67-14.19,3.1-1.66,1.52-2.41,3.24-2.38,5.59,.12,10.49-.04,20.99,.12,31.48,.04,2.74-.58,3.8-3.48,3.61-3.81-.25-7.66-.17-11.48-.02-2.27,.09-2.88-.72-2.87-2.93,.08-18.29,.08-36.59,0-54.88,0-2.17,.51-3.07,2.81-2.95,2.97,.16,5.97,.2,8.93,0,4-.27,7.47-.23,5.71,6.64Z"/>
      <path class="cls-1" d="M726,80.9c-5.53-3.56-11.11-5.83-17.36-6.14-1.26-.06-2.56-.05-3.8,.15-2.36,.37-4.54,1.34-4.95,3.93-.42,2.63,1.72,3.77,3.74,4.48,3.73,1.31,7.58,2.29,11.34,3.51,2.42,.78,4.84,1.61,7.16,2.65,6.58,2.96,10.85,7.78,10.91,15.3,.06,7.69-3.65,13.56-10.56,16.56-13.52,5.88-26.57,3.32-39.06-3.53-1.58-.86,.38-8.31,3.02-12,1.72-2.41,2.71,.2,3.7,.72,5.25,2.78,10.79,4.24,16.69,4.37,1.55,.03,3.17-.02,4.63-.44,2.16-.62,4.61-1.33,4.74-4.16,.12-2.85-2.21-3.8-4.38-4.44-4.75-1.39-9.61-2.41-14.33-3.88-9.44-2.93-13.74-7.95-14.01-15.93-.27-8.31,4.41-15.46,12.86-18.6,11.18-4.15,21.98-2.52,32.33,3.07,1.76,.95,2.39,2.05,1.44,4.1-1.48,3.2-2.63,6.54-4.09,10.27Z"/>
      <path class="cls-1" d="M537.79,99.05c4.32-11.79,8.31-22.37,12.01-33.04,.9-2.6,2.03-3.58,4.77-3.44,4.39,.22,8.79,.12,13.19,.03,2.05-.04,2.4,.61,1.63,2.46-7.78,18.68-15.23,37.51-23.45,56-2.25,5.07-8.14,1.23-12.25,2.21-2.14,.51-3.52-.24-4.48-2.61-6.83-16.78-13.88-33.46-20.82-50.19-3.24-7.82-3.2-7.84,5.41-7.84q10.46,0,14.15,9.99c3.14,8.48,6.31,16.96,9.84,26.44Z"/>
      <path class="cls-1" d="M658.34,68.35c5.2-5.39,11.06-7.83,18.21-6.95,2.58,.32,4.12,1.11,3.67,4.23-.5,3.49-.67,7.06-.7,10.59-.02,2.35-1,2.52-2.84,1.94-4.99-1.55-9.51-.55-13.55,2.69-3.23,2.59-5.12,5.55-4.94,10.12,.38,9.62,0,19.27,.19,28.91,.06,2.9-.9,3.63-3.61,3.47-3.67-.21-7.37-.17-11.05,0-2.26,.1-2.89-.69-2.88-2.9,.07-18.28,.09-36.56-.01-54.85-.01-2.53,.87-3.16,3.18-3.03,2.97,.17,5.97,.25,8.92-.01,4.15-.37,6.76,.43,5.43,5.78Z"/>
      <path class="cls-1" d="M480.18,176.55c5.02-5.31,10.9-7.98,18.25-6.78,2.37,.39,3.44,1.19,3.15,3.8-.49,4.34-.64,8.72-.96,13.54-7.29-2.67-13.48-1.34-18.55,4.32-1.67,1.86-2.5,3.9-2.47,6.52,.13,10.06-.05,20.12,.12,30.18,.05,2.85-.82,3.65-3.57,3.48-3.67-.23-7.37-.17-11.05-.01-2.17,.09-2.94-.5-2.93-2.81,.09-18.42,.08-36.84,.01-55.26,0-2,.5-2.78,2.59-2.66,2.68,.16,5.38,.04,8.07,.04q6.27,0,7.34,5.64Z"/>
      <path class="cls-1" d="M742.34,92.78c0-8.93,.08-17.86-.05-26.79-.03-2.42,.31-3.63,3.17-3.42,3.81,.27,7.66,.2,11.47,.02,2.31-.11,2.82,.74,2.81,2.91-.08,18.28-.09,36.57,.01,54.85,.01,2.52-.85,3.12-3.18,3.01-3.68-.17-7.38-.24-11.05,.02-2.76,.19-3.28-.88-3.24-3.38,.14-9.07,.05-18.14,.05-27.21Z"/>
      <path class="cls-1" d="M498.15,93.31c0,8.79-.14,17.59,.08,26.37,.08,3.08-.91,3.89-3.82,3.69-3.67-.25-7.37-.16-11.05-.02-2.06,.08-2.68-.65-2.67-2.68,.06-18.43,.06-36.87,0-55.3,0-1.9,.37-2.86,2.54-2.77,4.8,.19,10.81-1.53,14.06,.75,2.82,1.97,.71,8.46,.82,12.95,.14,5.67,.03,11.34,.03,17.01Z"/>
      <path class="cls-1" d="M751.03,54.39c-6.02,.04-10.74-4.71-10.69-10.74,.05-5.78,4.77-10.48,10.54-10.52,5.68-.03,10.65,4.73,10.81,10.37,.16,5.84-4.74,10.85-10.66,10.89Z"/>
      <path class="cls-1" d="M500.05,43.8c-.03,5.94-4.94,10.69-10.93,10.59-5.79-.1-10.43-4.81-10.45-10.6-.02-5.9,4.98-10.78,10.89-10.65,5.75,.13,10.52,4.98,10.49,10.66Z"/>
      <path class="cls-2" d="M151.88,135.4c.77-12.39,7.16-20.9,17.97-25.94,9.87-4.59,19.57-3.76,28.43,2.93,3.77,2.85,3.7,3-.2,5.26-13.73,7.94-27.45,15.87-41.19,23.79q-4.27,2.46-4.74-2.38c-.12-1.27-.2-2.54-.28-3.66Z"/>
    </g>
  </g>
</svg>