<?xml version="1.0" encoding="UTF-8"?>
<svg id="Capa_2" data-name="Capa 2" xmlns="http://www.w3.org/2000/svg" viewBox="0 0 734.43 673.42">
  <defs>
    <style>
      .cls-1 {
        fill: #f0f0f0;
      }
    </style>
  </defs>
  <g id="Capa_1-2" data-name="Capa 1">
    <g>
      <path class="cls-1" d="M351.45,230.32c0,51.46,.02,102.93,0,154.39-.02,34.54-1.62,68.9-10.74,102.52-10.49,38.64-27.25,73.85-53.49,104.56-34.5,40.37-78.13,64.89-129.44,76.11-23.82,5.21-48.23,6.38-72.57,5-11.66-.66-23.28-2.8-34.8-4.92-6.81-1.26-13.53-4.23-15.45-11.69-2.23-8.68,.97-15.64,8.64-20.84,17.33-11.75,33.88-24.69,48.45-39.67,43.56-44.78,72.32-97.64,84.23-159.26,5.09-26.34,5.42-53,5.07-79.71-.09-6.66-3.9-6.83-8.79-6.82-41.22,.07-82.46-.57-123.66,.32-18.38,.4-43.55-15.63-47.39-40.35C.52,303.7,0,297.52,0,291.23,.04,212.19,.01,133.16,.03,54.13,.03,22.45,22.27,.16,53.85,.16c81.13-.01,162.27,0,243.4,0,31.93,0,54.16,22.32,54.18,54.5,.04,58.55,.01,117.11,.01,175.66Z"/>
      <path class="cls-1" d="M734.4,234.31c0,56.99,.07,113.98-.02,170.98-.08,49.94-9.8,97.85-33.43,142.08-27.09,50.72-66.89,87.83-121.15,108.71-22.13,8.51-44.87,13.22-68.43,15.72-25.8,2.74-51.1,.58-76.42-3.54-7.82-1.27-14.89-4.27-17.09-12.93-2.15-8.43,.87-14.35,9.82-20.36,37.02-24.86,67.66-56.09,91.01-94,21.89-35.52,36.54-73.84,42.7-115.48,3.29-22.24,2.13-44.4,2.92-66.6,.22-6.12-2.05-7.46-7.73-7.42-34.4,.23-68.83,.83-103.2-.28-12.05-.39-24.52,.58-36.45-3.73-19.71-7.12-32.38-24.38-32.38-45.35,0-83.52,.45-167.04-.26-250.55-.24-27.94,21.63-51.06,50.31-51.23,83.25-.48,166.51-.36,249.77-.06,27.71,.1,50.02,23.53,50.03,51.25,.03,60.93,0,121.86,0,182.8Z"/>
    </g>
  </g>
</svg>